<svg xmlns="http://www.w3.org/2000/svg" width="48" height="48" viewBox="0 0 48 48"><defs><style>.a{fill:#ccf66c;}.b{fill:#05090b;}</style></defs><g transform="translate(-1358 -738)"><circle class="a" cx="24" cy="24" r="24" transform="translate(1358 738)"/><g transform="translate(1364.09 739.494)"><path class="b" d="M32.93,10.109,24.878,5.855a3.6,3.6,0,0,0-3.09,0l-8.051,4.254a1.959,1.959,0,0,0-.683.578H12.71V33.625h.339a1.961,1.961,0,0,0,.688.585l8.052,4.254a3.6,3.6,0,0,0,3.089,0L32.93,34.21a1.956,1.956,0,0,0,.688-.585h.339V10.686h-.345A1.965,1.965,0,0,0,32.93,10.109Zm-.9,9.9-6.209-3.28,6.209-3.28Zm-9.658-1.9v7.613l-7.205-3.806ZM24.3,25.727V18.114l7.2,3.807Zm-9.658-5.716V13.45l6.209,3.28Zm0,3.819L21.3,27.349l-6.661,3.519Zm17.384,0v7.039l-6.661-3.519ZM22.691,7.563a1.668,1.668,0,0,1,1.285,0L31.5,11.54l-7.528,3.977a1.668,1.668,0,0,1-1.285,0L15.163,11.54Zm1.285,29.193a1.672,1.672,0,0,1-1.285,0l-7.528-3.977L22.692,28.8a1.666,1.666,0,0,1,1.284,0L31.5,32.778Z" transform="translate(-5.4 0)"/><path class="b" d="M67.429,9.579l-.2-.121-1,1.653.2.123c1.36.819,1.683,1.013,1.683,2.75h1.932C70.047,11.287,69.1,10.585,67.429,9.579Z" transform="translate(-38.242 -2.425)"/><path class="b" d="M5.842,75.123H3.91c0,2.7.946,3.4,2.618,4.4l.2.121,1-1.652-.2-.123C6.165,77.054,5.842,76.86,5.842,75.123Z" transform="translate(0 -42.721)"/></g></g></svg>