<svg xmlns="http://www.w3.org/2000/svg" width="19.71" height="18.25" viewBox="0 0 19.71 18.25"><defs><style>.a{fill:#e17726;stroke:#e17726;}.a,.b,.c,.d,.e,.f,.g,.h,.i,.j{stroke-linecap:round;stroke-linejoin:round;stroke-width:0.25px;}.b{fill:#e27625;stroke:#e27625;}.c{fill:#d5bfb2;stroke:#d5bfb2;}.d{fill:#233447;stroke:#233447;}.e{fill:#cc6228;stroke:#cc6228;}.f{fill:#e27525;stroke:#e27525;}.g{fill:#f5841f;stroke:#f5841f;}.h{fill:#c0ac9d;stroke:#c0ac9d;}.i{fill:#161616;stroke:#161616;}.j{fill:#763e1a;stroke:#763e1a;}</style></defs><g transform="translate(-0.875 -0.875)"><path class="a" d="M27.45,1,19.824,6.643l1.419-3.325Z" transform="translate(-7.956)"/><path class="b" d="M2.663,1l7.558,5.7L8.871,3.317Z" transform="translate(-0.697)"/><path class="b" d="M26.764,23.533l-2.029,3.1,4.344,1.2L30.324,23.6Z" transform="translate(-10.016 -9.507)"/><path class="b" d="M1.273,23.6,2.51,27.829l4.337-1.2-2.021-3.1Z" transform="translate(-0.114 -9.507)"/><path class="b" d="M9.6,12.63,8.392,14.451l4.3.2-.143-4.627Z" transform="translate(-3.117 -3.805)"/><path class="b" d="M22.917,12.591,19.922,9.928l-.1,4.68,4.3-.2Z" transform="translate(-7.939 -3.766)"/><path class="b" d="M10.873,26.7l2.6-1.257L11.235,23.7Z" transform="translate(-4.161 -9.578)"/><path class="b" d="M20.266,25.447,22.861,26.7l-.355-3Z" transform="translate(-8.12 -9.578)"/><path class="c" d="M22.861,27.965l-2.595-1.257.211,1.686-.023.715Z" transform="translate(-8.12 -10.838)"/><path class="c" d="M10.873,27.965l2.414,1.144-.015-.715.2-1.686Z" transform="translate(-4.161 -10.838)"/><path class="d" d="M13.55,20.822l-2.157-.632,1.524-.7Z" transform="translate(-4.38 -7.791)"/><path class="d" d="M20.513,20.822l.633-1.331,1.531.7Z" transform="translate(-8.223 -7.791)"/><path class="e" d="M9.413,26.633l.377-3.1-2.4.068Z" transform="translate(-2.694 -9.507)"/><path class="e" d="M24.1,23.533l.37,3.1L26.5,23.6Z" transform="translate(-9.735 -9.507)"/><path class="e" d="M24.124,17.651l-4.3.2.4,2.2.633-1.331,1.531.7Z" transform="translate(-7.939 -7.018)"/><path class="e" d="M10.135,19.419l1.524-.7.633,1.331.4-2.2-4.3-.2Z" transform="translate(-3.117 -7.018)"/><path class="f" d="M8.392,17.651l1.8,3.514-.06-1.745Z" transform="translate(-3.115 -7.021)"/><path class="f" d="M24.192,19.419l-.068,1.745,1.8-3.514Z" transform="translate(-9.744 -7.021)"/><path class="f" d="M15.508,17.987l-.4,2.2.505,2.6.113-3.43Z" transform="translate(-5.944 -7.166)"/><path class="f" d="M19.671,17.987l-.211,1.37.106,3.438.506-2.6Z" transform="translate(-7.777 -7.166)"/><path class="g" d="M20.148,21.328l-.506,2.6.362.255,2.24-1.745.068-1.745Z" transform="translate(-7.858 -8.305)"/><path class="g" d="M11.393,20.7l.06,1.745,2.24,1.745.362-.255-.506-2.6Z" transform="translate(-4.381 -8.305)"/><path class="h" d="M16.516,30.016l.023-.715-.2-.165H13.46l-.188.165.015.715-2.414-1.144.845.692,1.712,1.182h2.935l1.72-1.182.837-.692Z" transform="translate(-4.171 -11.746)"/><path class="i" d="M18.059,26.523l-.362-.255H15.57l-.362.255L15,28.209l.189-.165h2.882l.2.165Z" transform="translate(-5.904 -10.654)"/><path class="j" d="M27.96,7.011,28.6,3.9,27.636,1l-7.37,5.455L23.1,8.847l4.006,1.166.883-1.031L27.605,8.7l.611-.557-.467-.361.611-.467Z" transform="translate(-8.141)"/><path class="j" d="M1,3.9l.649,3.115-.415.308.618.467-.467.361L2,8.7l-.385.278.883,1.031L6.5,8.847,9.335,6.455,1.966,1Z"/><path class="g" d="M28.726,15.681,24.72,14.515l1.207,1.821-1.8,3.514,2.384-.03h3.561Z" transform="translate(-9.759 -5.703)"/><path class="g" d="M6.613,14.515,2.608,15.681,1.273,19.819H4.826l2.384.03-1.8-3.514Z" transform="translate(-0.114 -5.703)"/><path class="g" d="M17.111,12.538l.257-4.409,1.161-3.137H13.354l1.162,3.137.257,4.409.1,1.384.008,3.424h2.127l.008-3.424Z" transform="translate(-5.212 -1.674)"/></g></svg>